<svg xmlns="http://www.w3.org/2000/svg" width="1024" height="1024" viewBox="0 0 1024 1024">
<g>
<path d="M 1022.68 476.75 C1023.03,483.49 1023.46,489.00 1023.65,489.00 C1023.84,489.00 1024.00,378.98 1024.00,244.50 L 1024.00 1024.00 L 0.00 1024.00 L 0.00 0.00 L 1024.00 0.00 L 779.25 0.14 C648.07,0.22 546.19,0.63 546.19,1.06 C546.19,1.07 546.29,1.08 546.49,1.10 C562.33,2.17 582.27,4.59 599.50,7.54 C774.33,37.48 923.15,158.62 988.25,324.00 C1007.70,373.40 1020.26,429.12 1022.68,476.75 ZM 191.63 711.37 C197.62,712.66 238.95,712.82 514.50,712.67 L 830.50 712.50 L 839.28 709.75 C850.21,706.32 863.64,699.63 871.50,693.71 C879.94,687.35 891.76,674.84 897.70,665.98 C927.16,622.08 928.03,575.17 900.63,507.33 C891.33,484.31 885.68,472.10 878.29,459.08 C869.41,443.46 868.00,439.89 868.00,433.10 C868.00,424.68 870.39,418.71 875.58,414.14 C880.87,409.48 887.13,407.53 894.36,408.27 C897.28,408.57 900.18,408.51 900.80,408.12 C901.97,407.40 902.87,395.54 901.83,394.50 C901.51,394.18 899.73,394.79 897.88,395.86 C896.02,396.92 893.38,398.13 892.00,398.53 C889.52,399.26 889.52,399.25 891.38,397.16 C894.70,393.44 901.14,391.00 907.62,391.00 C910.94,391.00 914.13,390.47 914.80,389.80 C916.26,388.34 916.38,384.35 915.00,383.50 C914.45,383.16 914.00,383.78 914.00,384.88 C914.00,388.11 910.20,390.00 903.71,390.00 C897.41,390.00 895.52,390.71 889.77,395.22 C886.21,398.01 882.10,398.67 881.77,396.50 C881.53,394.91 887.50,391.35 894.18,389.10 C897.55,387.96 901.14,386.27 902.16,385.36 C904.41,383.32 904.56,378.70 902.43,376.57 C900.54,374.69 899.78,374.62 898.20,376.20 C896.43,377.97 896.69,380.33 898.58,379.61 C899.59,379.22 900.01,379.46 899.75,380.25 C899.52,380.94 898.47,381.50 897.42,381.50 C895.13,381.50 894.25,377.61 896.05,375.44 C898.12,372.94 893.80,373.70 890.00,376.50 C885.72,379.66 883.31,379.66 880.82,376.50 C879.62,374.97 877.84,374.00 876.24,374.00 C872.75,374.00 861.48,380.79 854.84,386.88 C844.79,396.11 835.52,416.00 843.19,411.90 C844.63,411.13 845.94,411.11 847.50,411.82 C849.67,412.81 849.76,413.42 850.26,430.17 C850.90,451.46 852.00,455.91 863.50,483.68 C873.15,506.97 875.60,515.01 876.90,527.52 C879.41,551.75 870.67,579.69 856.10,594.03 C843.18,606.74 818.29,616.39 790.25,619.55 L 784.00 620.26 L 784.00 571.84 C784.00,519.39 784.16,517.54 789.60,506.80 C791.04,503.95 795.10,497.71 798.62,492.92 C802.13,488.13 806.45,481.12 808.22,477.35 C810.98,471.47 811.49,469.14 811.83,460.89 C812.28,449.91 810.76,443.15 805.71,433.64 C802.02,426.68 790.31,413.80 784.05,409.83 C780.09,407.31 774.00,405.97 774.00,407.62 C774.00,407.96 776.05,416.09 778.56,425.68 C783.60,444.93 783.58,446.78 778.28,453.07 C773.58,458.66 760.25,463.99 751.00,463.97 C745.69,463.95 738.60,461.00 737.09,458.16 C736.49,457.06 733.82,448.13 731.15,438.33 C727.02,423.15 725.99,420.45 724.27,420.20 C719.47,419.48 711.81,433.31 708.94,447.89 C705.56,465.10 713.14,488.09 728.60,507.49 C737.56,518.73 737.36,517.27 737.76,573.76 L 738.12 623.03 L 702.31 622.76 L 666.50 622.50 L 665.50 486.50 L 663.17 482.13 C661.70,479.37 659.76,477.36 657.92,476.66 L 655.00 475.56 L 655.01 427.03 L 655.02 425.43 C655.03,383.04 655.03,375.57 658.28,373.68 C659.01,373.25 659.92,373.11 661.02,372.91 C662.94,372.57 668.30,370.43 672.95,368.15 C678.05,365.64 682.80,364.00 684.95,364.00 C689.10,364.01 694.19,366.84 696.56,370.45 C698.11,372.82 698.77,373.00 706.08,373.00 C713.18,373.00 714.05,372.79 715.18,370.75 C717.02,367.44 717.48,347.46 715.83,342.50 L 714.50 338.50 L 706.75 338.21 L 699.00 337.92 L 695.15 341.96 C691.39,345.92 691.17,346.00 684.40,346.00 C677.42,346.00 677.01,345.86 666.84,340.01 C662.91,337.75 661.46,337.52 651.50,337.57 C642.55,337.61 638.23,338.21 628.36,340.75 C602.31,347.47 579.10,358.14 560.80,371.82 L 556.10 375.33 L 558.07 378.10 L 560.03 380.86 L 569.27 376.52 C592.18,365.77 602.19,364.44 619.61,369.86 C625.17,371.59 630.64,373.00 631.75,373.00 C632.87,373.00 634.17,373.79 634.63,374.75 C635.10,375.71 635.62,398.71 635.79,425.86 C636.07,469.28 635.92,475.43 634.56,476.93 C633.20,478.44 632.98,487.33 632.76,550.57 L 632.50 622.50 L 585.00 622.76 L 537.50 623.02 L 537.45 559.76 C537.42,523.23 536.88,486.78 536.16,473.50 C533.56,425.12 528.15,356.13 523.91,317.13 C522.81,307.03 522.08,298.59 522.29,298.38 C522.95,297.71 539.92,300.88 553.00,304.11 C568.41,307.92 584.42,313.71 597.23,320.13 C602.58,322.81 607.36,325.00 607.85,325.00 C608.33,325.00 610.16,321.80 611.91,317.88 C625.73,286.99 629.12,248.26 621.36,210.00 C618.55,196.18 618.08,193.39 617.01,193.13 C616.74,193.07 616.44,193.16 616.05,193.28 C615.92,193.32 615.77,193.37 615.62,193.41 C611.65,194.48 577.54,200.91 562.50,203.43 C521.27,210.32 466.14,215.96 439.84,215.99 L 430.18 216.00 L 429.41 220.25 C428.12,227.46 428.75,265.69 430.42,281.00 C431.29,288.98 432.00,295.87 432.00,296.31 C432.00,296.76 433.91,296.88 436.25,296.59 C438.59,296.30 444.40,295.79 449.16,295.45 L 457.82 294.84 L 458.40 301.17 C458.72,304.65 459.46,313.35 460.05,320.50 C463.68,364.52 470.79,410.16 479.93,448.13 C488.12,482.16 491.74,520.56 492.70,583.77 L 493.30 623.05 L 476.40 622.77 L 459.50 622.50 L 458.87 596.50 C457.93,557.60 456.63,551.70 443.48,526.50 C434.14,508.63 431.52,500.24 432.32,490.78 C432.85,484.35 432.71,483.62 430.50,481.40 C429.17,480.08 427.20,479.00 426.12,479.00 C422.84,479.00 418.47,474.43 415.57,467.99 C413.81,464.06 412.02,461.58 410.54,461.02 C408.17,460.12 406.00,455.49 406.00,451.35 C406.00,449.71 405.43,449.00 404.11,449.00 C402.37,449.00 401.00,447.20 401.00,444.92 C401.00,444.41 402.09,444.00 403.43,444.00 C406.26,444.00 406.30,443.90 408.47,430.50 L 410.08 420.50 L 406.52 391.00 C404.56,374.77 402.76,360.96 402.53,360.30 C402.02,358.88 394.04,354.62 393.29,355.37 C393.01,355.65 391.88,363.10 390.77,371.92 C388.85,387.16 388.84,388.13 390.46,391.56 C392.45,395.76 391.94,398.88 388.69,402.39 C386.76,404.47 386.17,406.85 385.04,416.97 C383.08,434.60 381.95,434.24 379.94,415.31 C378.92,405.68 378.42,403.81 376.38,401.88 C373.88,399.54 372.98,392.75 375.00,391.50 C375.55,391.16 376.00,389.45 376.01,387.69 C376.02,384.16 372.82,355.73 372.34,355.10 C372.17,354.88 370.00,355.78 367.52,357.10 C362.43,359.80 362.86,358.53 360.47,378.00 C359.62,384.88 358.04,396.95 356.95,404.84 C355.10,418.24 355.07,419.80 356.50,428.84 C358.35,440.60 358.75,443.24 360.07,443.83 C360.45,444.00 360.90,444.00 361.50,444.00 L 361.58 444.00 C364.63,444.00 365.03,447.92 362.06,448.70 C360.85,449.01 359.88,450.40 359.49,452.35 C358.36,458.13 356.82,461.00 354.87,461.00 C353.53,461.00 352.25,462.64 350.52,466.55 C346.68,475.24 344.58,477.62 339.66,478.86 C337.25,479.46 334.81,480.53 334.25,481.23 C333.68,481.93 333.05,487.49 332.85,493.60 L 332.48 504.70 L 322.26 525.60 C316.64,537.09 311.12,549.88 310.00,554.00 C307.75,562.27 306.05,585.82 306.02,609.25 L 306.00 623.00 L 269.00 623.00 L 269.00 591.92 C269.00,561.27 268.97,560.76 266.55,554.67 C264.09,548.49 262.07,540.97 262.02,537.82 C262.01,536.83 262.92,536.01 264.25,535.82 C266.30,535.53 266.50,534.96 266.50,529.50 L 266.50 523.50 L 252.50 522.50 L 252.24 480.51 C251.98,438.53 251.98,438.52 254.57,426.87 C257.05,415.74 257.11,414.63 256.08,402.55 C255.49,395.59 255.00,389.02 255.00,387.95 C255.00,386.20 254.27,386.00 247.68,386.00 L 240.37 386.00 L 239.30 400.87 C238.29,415.00 238.35,416.26 240.60,426.12 C242.88,436.16 242.96,437.93 242.98,479.75 L 243.00 523.00 L 229.00 523.00 L 229.00 529.09 C229.00,534.35 229.28,535.26 231.00,535.71 C233.86,536.46 233.58,540.78 230.00,551.00 L 227.03 559.50 L 227.01 588.88 L 227.00 618.26 L 221.95 617.59 C214.64,616.62 199.50,612.51 192.14,609.50 C169.07,600.05 156.95,586.25 150.89,562.50 C149.02,555.18 148.59,550.89 148.61,539.50 C148.64,522.76 149.76,516.56 158.62,484.12 C167.49,451.66 169.38,440.18 168.70,423.00 C167.70,397.93 160.67,382.00 147.76,375.57 C139.45,371.42 132.44,372.32 126.16,378.31 C121.50,382.77 119.72,386.64 119.67,392.47 C119.59,401.39 124.49,407.00 132.37,407.00 C137.30,407.00 142.00,402.88 142.00,398.57 C142.00,394.53 139.28,391.90 134.25,391.07 L 130.50 390.45 L 133.32 387.61 C135.64,385.27 136.69,384.89 139.32,385.40 C144.05,386.33 147.21,389.03 149.95,394.50 C152.03,398.64 152.47,401.20 152.82,411.06 C153.50,430.19 149.25,445.52 132.07,485.86 C121.75,510.09 115.32,527.35 111.06,542.25 C97.20,590.69 101.68,629.51 125.17,664.60 C142.07,689.84 164.31,705.49 191.63,711.37 ZM 0.15 245.25 C0.22,376.00 0.62,478.52 1.04,478.52 C1.05,478.52 1.06,478.41 1.08,478.21 C8.91,355.24 62.34,237.60 150.15,150.00 C238.29,62.08 354.05,9.42 477.51,1.10 C477.71,1.08 477.81,1.07 477.81,1.06 C477.81,0.63 375.93,0.22 244.75,0.14 L 0.00 0.00 ZM 0.15 778.75 L 0.00 1024.00 L 244.75 1023.86 C375.93,1023.78 477.81,1023.37 477.81,1022.94 C477.81,1022.93 477.71,1022.92 477.51,1022.90 C443.99,1020.64 407.22,1014.37 375.00,1005.40 C277.83,978.38 189.31,922.09 123.73,845.65 C51.36,761.28 8.06,655.41 1.08,545.79 C1.06,545.59 1.05,545.48 1.04,545.48 C0.62,545.48 0.22,648.00 0.15,778.75 ZM 546.49 1022.90 C546.29,1022.92 546.19,1022.93 546.19,1022.94 C546.19,1023.37 648.07,1023.78 779.25,1023.86 L 1024.00 1024.00 L 1023.86 779.25 C1023.78,648.07 1023.37,546.19 1022.94,546.19 C1022.93,546.19 1022.92,546.29 1022.90,546.49 C1014.55,670.38 961.43,786.78 873.10,874.73 C785.41,962.06 669.58,1014.60 546.49,1022.90 ZM 602.77 982.00 C604.18,984.26 606.12,984.52 609.32,982.88 C613.67,980.63 616.23,977.34 620.51,968.51 C629.24,950.45 655.31,919.49 663.95,916.90 C666.18,916.23 668.28,915.95 668.61,916.27 C668.94,916.60 668.43,923.76 667.48,932.18 C665.87,946.45 665.92,957.61 667.61,963.75 C668.83,968.16 676.87,965.89 679.47,960.42 C683.21,952.54 685.75,908.63 688.09,811.59 C689.32,760.71 689.02,755.02 684.91,750.91 C683.86,749.86 681.89,749.00 680.52,749.00 C675.46,749.00 675.27,750.38 674.63,792.50 C674.10,827.66 673.46,843.88 671.41,874.22 L 670.75 883.94 L 667.49 881.22 C665.69,879.72 659.59,873.33 653.92,867.00 C639.88,851.34 630.43,842.12 621.59,835.47 L 614.14 829.86 L 613.74 790.18 C613.51,768.36 612.98,749.49 612.55,748.25 C612.05,746.82 610.95,746.00 609.53,746.00 C605.78,746.00 601.02,748.10 599.86,750.27 C599.10,751.69 598.64,774.01 598.38,822.41 C598.17,860.96 597.83,912.19 597.62,936.25 L 597.24 980.00 L 599.38 980.00 C600.56,980.00 602.08,980.90 602.77,982.00 ZM 427.71 602.75 L 428.29 623.00 L 337.00 623.00 L 337.01 613.75 C337.05,571.50 344.10,541.87 358.48,523.50 C367.47,512.02 374.00,496.26 374.00,486.06 C374.00,482.27 374.71,478.48 375.93,475.78 C376.99,473.42 378.11,470.71 378.40,469.75 C378.80,468.46 380.00,468.00 382.97,468.00 C386.13,468.00 387.00,468.38 387.02,469.75 C387.03,470.71 388.01,473.52 389.19,476.00 C390.68,479.13 391.25,482.05 391.08,485.58 C390.63,494.95 398.18,512.94 407.07,523.71 C419.80,539.12 426.63,565.27 427.71,602.75 ZM 516.06 985.21 C519.35,988.50 521.53,988.75 522.99,986.01 C523.71,984.67 524.01,968.11 523.91,935.26 C523.78,892.65 523.99,884.99 525.58,874.50 C527.01,865.07 527.42,856.07 527.49,832.50 C527.59,800.92 528.20,796.00 531.99,796.00 C533.95,796.00 539.11,801.37 541.38,805.76 C542.15,807.27 544.41,812.52 546.39,817.43 C548.37,822.34 551.90,829.53 554.24,833.41 L 558.50 840.45 L 558.42 868.48 C558.38,883.89 557.59,911.12 556.68,929.00 C555.76,946.88 554.84,965.21 554.62,969.73 L 554.22 977.97 L 558.11 981.48 C560.25,983.42 563.02,985.00 564.25,985.00 L 566.50 985.00 L 566.21 963.96 C565.96,945.30 569.67,862.78 571.58,844.81 L 572.18 839.12 L 549.75 794.81 C526.33,748.56 525.30,746.96 519.85,748.32 C515.21,749.49 515.00,751.43 515.00,793.39 C515.00,821.84 514.56,837.07 513.42,848.59 C511.67,866.15 511.32,910.32 512.56,955.96 L 513.27 982.43 ZM 387.04 964.83 C388.97,968.00 389.28,968.13 393.29,967.47 C395.60,967.08 397.66,966.63 397.85,966.45 C398.05,966.27 398.36,945.29 398.55,919.81 C398.76,891.24 399.29,872.16 399.95,870.01 C400.55,868.01 400.99,857.10 400.99,844.51 C400.98,832.40 401.49,810.80 402.12,796.50 C402.92,778.34 402.96,767.68 402.25,761.15 C401.07,750.38 399.67,748.03 395.32,749.56 C393.11,750.33 389.04,756.72 373.40,783.97 C362.83,802.38 353.75,817.58 353.23,817.76 C351.59,818.30 348.15,807.28 343.52,786.62 C339.03,766.56 334.47,754.00 331.70,754.00 C330.93,754.00 328.88,754.49 327.15,755.10 C324.03,756.18 324.00,756.27 324.00,762.99 C324.00,770.50 325.74,776.96 332.44,794.29 C334.96,800.81 337.92,811.19 339.49,819.02 C342.66,834.75 343.98,838.34 348.25,842.75 L 351.39 846.00 L 354.29 843.25 C357.97,839.76 360.21,835.23 362.41,826.87 C363.63,822.24 365.67,818.18 369.18,813.37 C371.94,809.59 375.79,803.35 377.73,799.50 C379.67,795.65 382.16,791.21 383.27,789.64 C385.02,787.16 385.42,787.00 386.21,788.41 C389.12,793.62 388.96,900.49 385.98,944.50 C385.90,945.64 385.83,946.70 385.76,947.69 C385.03,958.34 384.87,960.65 385.70,962.53 C386.00,963.22 386.44,963.86 387.04,964.83 ZM 478.67 984.33 C479.99,985.65 484.04,984.96 485.91,983.09 C487.26,981.74 488.05,978.92 488.64,973.34 C490.04,960.09 489.53,787.84 488.07,778.50 C486.68,769.65 483.83,762.06 480.90,759.41 C477.98,756.77 474.43,758.84 472.85,764.10 C471.80,767.63 471.88,769.87 473.38,778.39 C476.81,797.90 477.96,807.59 477.98,817.25 C478.00,824.86 477.70,827.00 476.63,827.00 C474.78,827.00 469.77,821.43 455.05,803.00 C448.23,794.47 440.87,785.36 438.68,782.75 C433.94,777.12 425.00,770.00 422.64,770.00 C421.72,770.00 420.06,771.46 418.94,773.25 C413.64,781.73 422.40,797.73 440.15,812.00 C460.78,828.58 470.89,840.97 474.71,854.37 C476.49,860.62 477.83,900.14 477.93,949.58 C477.97,968.33 478.30,983.97 478.67,984.33 ZM 209.09 260.32 C215.24,269.94 216.26,271.06 218.25,270.45 C222.43,269.19 227.04,265.87 226.30,264.66 C225.90,264.02 218.39,253.60 209.61,241.50 C185.32,208.06 177.95,196.60 179.66,194.98 C180.12,194.54 184.34,192.84 189.02,191.20 C193.71,189.56 200.33,187.04 203.74,185.61 C207.15,184.17 210.74,183.00 211.72,183.00 C215.33,183.00 226.23,197.57 238.07,218.22 C248.40,236.22 250.01,238.54 252.47,238.83 C257.19,239.39 257.62,237.66 254.38,231.29 C252.76,228.10 244.98,214.06 237.08,200.08 C223.57,176.15 222.79,174.47 223.78,171.58 C224.36,169.88 225.15,166.48 225.54,164.00 C227.35,152.36 232.76,141.00 236.49,141.00 C237.20,141.00 239.09,142.48 240.69,144.29 C243.46,147.46 264.15,186.36 271.38,202.03 C275.54,211.04 277.70,213.26 281.87,212.82 L 284.93 212.50 L 280.79 203.00 C271.54,181.79 247.02,135.81 240.66,127.75 C236.49,122.47 231.02,128.11 223.07,145.85 C219.70,153.37 215.76,161.50 214.32,163.92 L 211.69 168.32 L 209.03 162.73 C205.23,154.77 204.27,153.79 201.64,155.18 C198.88,156.66 197.07,159.04 197.03,161.27 C197.01,162.24 198.12,166.26 199.50,170.19 C200.88,174.13 202.00,177.95 202.00,178.67 C202.00,179.70 199.25,180.00 189.75,180.01 C174.77,180.03 167.64,181.66 163.75,185.98 C158.97,191.29 159.80,194.83 167.80,203.30 C180.38,216.61 186.85,225.55 209.09,260.32 ZM 795.10 269.40 C796.22,270.83 797.47,272.00 797.86,272.00 C798.26,272.00 800.34,268.96 802.48,265.25 C823.64,228.63 842.26,200.22 849.65,193.29 C853.22,189.95 854.08,188.52 853.82,186.31 C853.43,182.96 848.39,179.86 839.58,177.56 C831.04,175.34 798.96,171.51 795.75,172.33 C790.87,173.58 791.97,177.90 800.47,190.97 C808.32,203.02 810.19,207.63 807.86,209.11 C807.11,209.58 800.85,209.98 793.94,209.98 C779.78,210.00 777.25,210.86 778.35,215.28 C779.28,218.98 782.10,219.44 791.58,217.45 C799.44,215.81 800.19,215.80 804.34,217.39 C806.77,218.31 809.56,219.96 810.53,221.04 C812.11,222.78 812.17,223.49 811.06,227.25 C809.17,233.64 802.63,245.66 796.89,253.28 C792.41,259.25 791.87,260.47 792.42,263.43 C792.77,265.28 793.97,267.97 795.10,269.40 ZM 630.07 937.00 C622.19,946.08 615.42,953.87 615.01,954.32 C613.58,955.88 612.97,951.65 611.96,933.14 C611.14,918.20 611.26,909.43 612.55,889.00 C613.44,874.97 614.37,862.04 614.63,860.25 C615.65,853.10 622.02,857.24 642.78,878.54 L 660.05 896.26 L 657.89 900.73 C654.71,907.30 646.17,918.43 630.07,937.00 ZM 741.41 217.48 C742.15,220.45 744.99,220.82 747.18,218.25 C749.08,216.02 785.66,143.22 787.49,138.02 C788.81,134.28 788.77,134.08 786.33,132.48 C782.82,130.18 777.90,130.93 763.99,135.87 C757.66,138.12 749.59,140.55 746.05,141.26 L 739.61 142.57 L 738.39 147.38 C736.53,154.64 729.77,167.93 725.35,173.00 C711.98,188.33 708.24,197.37 712.89,203.11 C714.50,205.10 715.00,205.24 716.39,204.10 C717.27,203.36 718.00,201.80 718.01,200.63 C718.01,199.46 718.80,197.32 719.76,195.87 C723.25,190.60 736.17,175.01 738.68,173.04 C742.37,170.14 748.49,168.74 754.14,169.52 C758.68,170.14 759.00,170.38 759.00,173.07 C759.00,177.25 754.88,187.54 748.74,198.74 C741.85,211.27 740.63,214.39 741.41,217.48 ZM 296.82 204.30 C297.75,205.36 299.44,205.97 300.95,205.80 C304.28,205.41 304.89,201.19 302.17,197.29 C299.74,193.81 296.71,175.74 296.59,164.00 C296.51,156.68 296.88,154.74 299.21,149.99 C300.78,146.79 303.13,143.76 304.83,142.76 L 307.74 141.04 L 310.79 146.77 C312.47,149.92 315.87,158.42 318.35,165.66 C320.82,172.89 323.54,180.15 324.39,181.78 C325.96,184.83 328.47,186.44 330.09,185.44 C332.01,184.26 330.88,176.61 327.64,168.69 C325.79,164.19 322.58,155.32 320.51,149.00 C314.36,130.24 303.96,101.86 301.37,96.75 C296.52,87.17 291.80,91.89 287.06,111.04 C285.90,115.69 283.08,125.22 280.79,132.21 L 276.61 144.92 L 281.27 154.21 C283.83,159.32 286.38,165.98 286.94,169.00 C292.04,196.76 292.90,199.84 296.82,204.30 ZM 695.64 193.10 C700.03,196.00 701.01,195.56 700.92,190.75 C700.83,185.47 699.87,183.00 693.08,170.49 C683.68,153.17 675.61,142.37 670.91,140.80 C670.08,140.53 670.35,138.05 671.88,132.02 C673.04,127.40 674.00,122.44 674.00,121.00 C674.00,115.17 677.19,113.68 710.49,104.06 C734.66,97.08 737.35,95.63 731.01,93.00 C724.96,90.50 712.87,92.21 696.06,97.95 C687.71,100.80 680.50,102.99 680.04,102.81 C679.57,102.64 680.95,96.67 683.09,89.53 C685.24,82.40 687.00,75.34 687.00,73.84 C687.00,70.61 683.79,68.00 679.82,68.00 C677.45,68.00 677.01,68.49 676.44,71.75 C671.55,99.81 661.76,136.43 654.37,154.22 C651.18,161.92 651.21,168.30 654.45,171.55 C655.80,172.90 657.77,174.00 658.82,174.00 C660.47,174.00 660.89,172.82 661.83,165.53 C662.86,157.50 665.11,151.00 666.84,151.00 C669.37,151.00 677.03,162.18 684.31,176.50 C690.08,187.83 692.07,190.75 695.64,193.10 ZM 541.65 144.17 C544.05,146.82 544.99,146.43 545.07,142.75 C545.24,134.52 547.62,100.06 548.03,99.73 C553.62,95.25 566.87,87.15 575.00,83.25 C582.80,79.51 586.92,77.84 587.38,75.47 C587.84,73.08 584.63,69.98 577.77,63.36 C576.97,62.59 576.12,61.77 575.22,60.90 C562.11,48.19 549.99,39.27 547.74,40.66 C547.22,40.98 545.95,43.10 544.92,45.37 C543.35,48.82 543.04,52.04 543.00,65.00 C542.98,73.53 542.30,85.45 541.49,91.50 C540.61,98.04 540.01,110.58 540.01,122.42 C540.00,139.56 540.23,142.60 541.65,144.17 ZM 429.80 151.32 C435.09,152.71 435.78,151.16 433.62,142.74 C432.74,139.31 431.13,129.00 430.04,119.83 C428.20,104.25 428.18,102.57 429.63,94.33 C430.84,87.43 431.03,82.05 430.48,69.75 L 429.77 54.00 L 432.26 54.00 C433.62,54.00 439.41,55.35 445.12,56.99 C460.40,61.40 467.86,60.80 462.14,55.63 C459.96,53.65 434.18,43.48 428.85,42.49 C423.43,41.49 417.50,44.57 404.29,55.26 C392.36,64.91 387.00,71.39 387.00,76.17 C387.00,78.63 387.38,79.00 389.92,79.00 C394.44,79.00 395.71,78.18 399.66,72.65 C407.06,62.30 412.24,58.00 417.30,58.00 C419.14,58.00 420.13,58.95 421.55,62.11 C423.36,66.13 423.36,66.37 421.45,72.86 C418.32,83.51 418.88,98.83 423.38,125.50 C427.72,151.23 427.60,150.74 429.80,151.32 ZM 482.68 144.34 C484.72,146.38 490.47,143.79 500.54,136.30 C504.96,133.01 512.18,128.45 516.57,126.16 C521.68,123.51 525.19,120.95 526.28,119.10 C528.57,115.23 528.49,115.00 524.99,115.00 C523.04,115.00 519.42,116.72 514.74,119.88 C508.95,123.78 494.77,132.42 491.92,133.78 C490.43,134.49 489.00,128.14 489.00,120.84 C489.00,113.30 489.18,112.61 491.75,110.32 C493.26,108.97 500.80,104.93 508.50,101.34 C516.20,97.75 523.29,94.11 524.25,93.25 C527.21,90.61 526.40,89.00 522.12,89.00 C518.16,89.00 510.33,92.53 500.50,98.74 C493.87,102.93 490.51,103.72 489.50,101.32 C489.08,100.32 488.45,87.27 488.11,72.32 C487.53,46.77 487.37,44.97 485.39,42.32 C482.56,38.53 478.98,38.56 477.14,42.39 C475.68,45.43 476.09,49.36 479.50,65.00 C482.10,76.93 483.30,98.45 482.64,121.59 C482.30,133.74 482.31,143.98 482.68,144.34 ZM 626.67 162.75 C627.66,164.37 629.00,165.00 631.44,165.00 C638.11,165.00 639.54,163.27 635.98,159.48 C633.19,156.51 624.64,136.91 619.86,122.50 C617.66,115.90 614.77,108.53 613.43,106.12 C612.10,103.72 611.00,101.33 611.00,100.82 C611.00,100.30 618.88,91.52 628.50,81.29 C638.12,71.06 646.00,62.14 646.00,61.45 C646.00,57.96 637.16,59.31 632.09,63.58 C630.43,64.97 626.19,69.80 622.65,74.31 C619.12,78.81 612.12,86.47 607.11,91.32 C602.10,96.17 598.00,100.63 598.00,101.23 C598.00,101.83 599.36,104.44 601.01,107.02 C602.67,109.60 606.66,118.90 609.88,127.68 C614.84,141.20 619.78,151.53 626.67,162.75 ZM 375.05 161.39 C381.64,165.06 386.66,165.94 388.80,163.80 C391.96,160.64 388.62,156.67 375.50,147.96 C371.10,145.04 364.58,139.86 361.00,136.47 C357.42,133.07 351.91,128.65 348.75,126.66 C341.53,122.10 341.52,121.80 347.60,102.27 C355.46,77.00 357.71,66.00 355.03,66.00 C353.01,66.00 347.14,72.19 345.66,75.90 C344.80,78.03 343.38,83.76 342.49,88.64 C341.61,93.51 339.14,103.80 337.01,111.50 C336.56,113.16 336.13,114.67 335.75,116.06 C332.79,126.67 331.87,129.97 333.12,131.71 C333.85,132.72 335.31,133.21 337.54,134.30 C340.62,135.81 347.27,140.54 352.32,144.80 C364.12,154.77 367.20,157.02 375.05,161.39 ZM 770.97 157.38 L 767.79 161.00 L 743.74 161.00 L 744.27 157.05 C745.38,148.74 751.16,144.43 763.47,142.73 C777.91,140.74 780.74,146.26 770.97,157.38 ZM 828.49 206.31 C823.37,213.01 821.91,213.55 819.26,209.67 C815.88,204.72 808.89,189.21 808.68,186.21 C808.51,183.70 808.82,183.48 812.74,183.19 C815.81,182.97 819.37,183.86 825.62,186.41 C830.38,188.35 834.47,190.14 834.73,190.39 C835.85,191.52 831.71,202.09 828.49,206.31 ZM 298.75 136.66 C295.86,141.66 292.78,146.80 291.91,148.08 L 290.32 150.41 L 288.56 147.73 C285.74,143.43 284.94,138.13 286.10,131.50 C287.96,120.97 295.79,107.52 298.94,109.46 C301.27,110.91 304.00,118.06 304.00,122.75 C304.00,126.75 303.10,129.13 298.75,136.66 ZM 556.36 80.97 C553.37,82.09 550.46,83.00 549.90,83.00 C549.23,83.00 549.09,79.62 549.49,73.25 C550.57,55.90 550.85,55.32 556.81,58.40 C559.92,60.01 570.00,70.35 570.00,71.93 C570.00,73.63 562.25,78.76 556.36,80.97 ZM 447.81 945.25 C450.79,948.45 455.45,948.96 456.80,946.25 C458.21,943.40 456.74,930.31 454.79,928.36 C453.31,926.88 452.55,926.82 449.06,927.86 C441.29,930.19 440.75,937.68 447.81,945.25 ZM 344.13 923.66 C345.80,925.67 355.89,924.96 359.54,922.57 C362.44,920.67 362.96,915.04 360.43,912.94 C357.96,910.89 349.59,911.16 347.14,913.37 C344.09,916.13 342.47,921.66 344.13,923.66 ZM 500.25 70.53 C502.04,71.32 505.30,71.86 507.50,71.74 C511.01,71.53 511.54,71.17 511.81,68.87 C512.16,65.80 508.12,62.00 504.50,62.00 C501.79,62.00 497.00,65.59 497.00,67.62 C497.00,68.43 498.46,69.74 500.25,70.53 ZM 443.45 79.55 C446.43,82.52 447.41,82.59 450.00,80.00 C452.35,77.65 452.63,72.77 450.51,71.01 C447.78,68.74 441.00,72.03 441.00,75.62 C441.00,76.43 442.10,78.20 443.45,79.55 ZM 639.32 113.65 C645.13,118.98 649.76,117.31 646.53,111.06 C644.95,108.00 643.19,107.00 639.39,107.00 C635.27,107.00 635.24,109.92 639.32,113.65 ZM 369.02 115.17 C369.58,115.36 372.06,115.35 374.54,115.15 C379.82,114.73 382.05,112.19 379.43,109.57 C377.48,107.62 375.89,107.60 371.47,109.45 C368.11,110.85 366.60,114.37 369.02,115.17 ZM 696.50 139.02 C702.29,142.43 705.00,142.80 705.00,140.17 C705.00,136.92 700.45,133.68 695.76,133.59 C689.99,133.47 690.24,135.34 696.50,139.02 ZM 566.23 123.96 C567.48,124.46 569.74,124.90 571.25,124.94 C573.47,124.99 574.00,124.56 574.00,122.70 C574.00,121.43 573.46,119.86 572.80,119.20 C571.40,117.80 566.13,117.63 564.10,118.91 C562.24,120.09 563.39,122.82 566.23,123.96 ZM 746.40 900.84 C747.38,902.42 749.13,902.30 751.78,900.44 C754.49,898.54 754.68,896.00 752.11,896.00 C749.52,896.00 745.51,899.40 746.40,900.84 ZM 940.07 441.25 C940.03,442.76 940.45,444.00 941.00,444.00 C942.17,444.00 942.17,443.23 941.00,440.50 C940.24,438.73 940.13,438.81 940.07,441.25 ZM 745.66 271.55 C746.26,273.13 748.00,273.54 748.00,272.11 C748.00,271.62 747.35,270.96 746.55,270.66 C745.58,270.29 745.29,270.58 745.66,271.55 Z" fill="rgb(4,4,4)"/>
<path d="M 0.15 778.75 C0.23,643.86 0.65,539.03 1.08,545.79 C8.06,655.41 51.36,761.28 123.73,845.65 C189.31,922.09 277.83,978.38 375.00,1005.40 C407.22,1014.37 443.99,1020.64 477.51,1022.90 C484.14,1023.35 380.02,1023.78 244.75,1023.86 L 0.00 1024.00 L 0.15 778.75 ZM 546.49 1022.90 C669.58,1014.60 785.41,962.06 873.10,874.73 C961.43,786.78 1014.55,670.38 1022.90,546.49 C1023.35,539.86 1023.78,643.98 1023.86,779.25 L 1024.00 1024.00 L 779.25 1023.86 C643.98,1023.78 539.86,1023.35 546.49,1022.90 ZM 516.06 985.21 L 513.27 982.43 L 512.56 955.96 C511.32,910.32 511.67,866.15 513.42,848.59 C514.56,837.07 515.00,821.84 515.00,793.39 C515.00,751.43 515.21,749.49 519.85,748.32 C525.30,746.96 526.33,748.56 549.75,794.81 L 572.18 839.12 L 571.58 844.81 C569.67,862.78 565.96,945.30 566.21,963.96 L 566.50 985.00 L 564.25 985.00 C563.02,985.00 560.25,983.42 558.11,981.48 L 554.22 977.97 L 554.62 969.73 C554.84,965.21 555.76,946.88 556.68,929.00 C557.59,911.12 558.38,883.89 558.42,868.48 L 558.50 840.45 L 554.24 833.41 C551.90,829.53 548.37,822.34 546.39,817.43 C544.41,812.52 542.15,807.27 541.38,805.76 C539.11,801.37 533.95,796.00 531.99,796.00 C528.20,796.00 527.59,800.92 527.49,832.50 C527.42,856.07 527.01,865.07 525.58,874.50 C523.99,884.99 523.78,892.65 523.91,935.26 C524.01,968.11 523.71,984.67 522.99,986.01 C521.53,988.75 519.35,988.50 516.06,985.21 ZM 478.67 984.33 C478.30,983.97 477.97,968.33 477.93,949.58 C477.83,900.14 476.49,860.62 474.71,854.37 C470.89,840.97 460.78,828.58 440.15,812.00 C422.40,797.73 413.64,781.73 418.94,773.25 C420.06,771.46 421.72,770.00 422.64,770.00 C425.00,770.00 433.94,777.12 438.68,782.75 C440.87,785.36 448.23,794.47 455.05,803.00 C469.77,821.43 474.78,827.00 476.63,827.00 C477.70,827.00 478.00,824.86 477.98,817.25 C477.96,807.59 476.81,797.90 473.38,778.39 C471.88,769.87 471.80,767.63 472.85,764.10 C474.43,758.84 477.98,756.77 480.90,759.41 C483.83,762.06 486.68,769.65 488.07,778.50 C489.53,787.84 490.04,960.09 488.64,973.34 C488.05,978.92 487.26,981.74 485.91,983.09 C484.04,984.96 479.99,985.65 478.67,984.33 ZM 602.77 982.00 C602.08,980.90 600.56,980.00 599.38,980.00 L 597.24 980.00 L 597.62 936.25 C597.83,912.19 598.17,860.96 598.38,822.41 C598.64,774.01 599.10,751.69 599.86,750.27 C601.02,748.10 605.78,746.00 609.53,746.00 C610.95,746.00 612.05,746.82 612.55,748.25 C612.98,749.49 613.51,768.36 613.74,790.18 L 614.14 829.86 L 621.59 835.47 C630.43,842.12 639.88,851.34 653.92,867.00 C659.59,873.33 665.69,879.72 667.49,881.22 L 670.75 883.94 L 671.41 874.22 C673.46,843.88 674.10,827.66 674.63,792.50 C675.27,750.38 675.46,749.00 680.52,749.00 C681.89,749.00 683.86,749.86 684.91,750.91 C689.02,755.02 689.32,760.71 688.09,811.59 C685.75,908.63 683.21,952.54 679.47,960.42 C676.87,965.89 668.83,968.16 667.61,963.75 C665.92,957.61 665.87,946.45 667.48,932.18 C668.43,923.76 668.94,916.60 668.61,916.27 C668.28,915.95 666.18,916.23 663.95,916.90 C655.31,919.49 629.24,950.45 620.51,968.51 C616.23,977.34 613.67,980.63 609.32,982.88 C606.12,984.52 604.18,984.26 602.77,982.00 ZM 630.07 937.00 C646.17,918.43 654.71,907.30 657.89,900.73 L 660.05 896.26 L 642.78 878.54 C622.02,857.24 615.65,853.10 614.63,860.25 C614.37,862.04 613.44,874.97 612.55,889.00 C611.26,909.43 611.14,918.20 611.96,933.14 C612.97,951.65 613.58,955.88 615.01,954.32 C615.42,953.87 622.19,946.08 630.07,937.00 ZM 387.04 964.83 C384.69,960.97 384.76,962.44 385.98,944.50 C388.96,900.49 389.12,793.62 386.21,788.41 C385.42,787.00 385.02,787.16 383.27,789.64 C382.16,791.21 379.67,795.65 377.73,799.50 C375.79,803.35 371.94,809.59 369.18,813.37 C365.67,818.18 363.63,822.24 362.41,826.87 C360.21,835.23 357.97,839.76 354.29,843.25 L 351.39 846.00 L 348.25 842.75 C343.98,838.34 342.66,834.75 339.49,819.02 C337.92,811.19 334.96,800.81 332.44,794.29 C325.74,776.96 324.00,770.50 324.00,762.99 C324.00,756.27 324.03,756.18 327.15,755.10 C328.88,754.49 330.93,754.00 331.70,754.00 C334.47,754.00 339.03,766.56 343.52,786.62 C348.15,807.28 351.59,818.30 353.23,817.76 C353.75,817.58 362.83,802.38 373.40,783.97 C389.04,756.72 393.11,750.33 395.32,749.56 C399.67,748.03 401.07,750.38 402.25,761.15 C402.96,767.68 402.92,778.34 402.12,796.50 C401.49,810.80 400.98,832.40 400.99,844.51 C400.99,857.10 400.55,868.01 399.95,870.01 C399.29,872.16 398.76,891.24 398.55,919.81 C398.36,945.29 398.05,966.27 397.85,966.45 C397.66,966.63 395.60,967.08 393.29,967.47 C389.28,968.13 388.97,968.00 387.04,964.83 ZM 447.81 945.25 C440.75,937.68 441.29,930.19 449.06,927.86 C452.55,926.82 453.31,926.88 454.79,928.36 C456.74,930.31 458.21,943.40 456.80,946.25 C455.45,948.96 450.79,948.45 447.81,945.25 ZM 344.13 923.66 C342.47,921.66 344.09,916.13 347.14,913.37 C349.59,911.16 357.96,910.89 360.43,912.94 C362.96,915.04 362.44,920.67 359.54,922.57 C355.89,924.96 345.80,925.67 344.13,923.66 ZM 746.40 900.84 C745.51,899.40 749.52,896.00 752.11,896.00 C754.68,896.00 754.49,898.54 751.78,900.44 C749.13,902.30 747.38,902.42 746.40,900.84 ZM 191.63 711.37 C164.31,705.49 142.07,689.84 125.17,664.60 C101.68,629.51 97.20,590.69 111.06,542.25 C115.32,527.35 121.75,510.09 132.07,485.86 C149.25,445.52 153.50,430.19 152.82,411.06 C152.47,401.20 152.03,398.64 149.95,394.50 C147.21,389.03 144.05,386.33 139.32,385.40 C136.69,384.89 135.64,385.27 133.32,387.61 L 130.50 390.45 L 134.25 391.07 C139.28,391.90 142.00,394.53 142.00,398.57 C142.00,402.88 137.30,407.00 132.37,407.00 C124.49,407.00 119.59,401.39 119.67,392.47 C119.72,386.64 121.50,382.77 126.16,378.31 C132.44,372.32 139.45,371.42 147.76,375.57 C160.67,382.00 167.70,397.93 168.70,423.00 C169.38,440.18 167.49,451.66 158.62,484.12 C149.76,516.56 148.64,522.76 148.61,539.50 C148.59,550.89 149.02,555.18 150.89,562.50 C156.95,586.25 169.07,600.05 192.14,609.50 C199.50,612.51 214.64,616.62 221.95,617.59 L 227.00 618.26 L 227.01 588.88 L 227.03 559.50 L 230.00 551.00 C233.58,540.78 233.86,536.46 231.00,535.71 C229.28,535.26 229.00,534.35 229.00,529.09 L 229.00 523.00 L 236.00 523.00 L 243.00 523.00 L 242.98 479.75 C242.96,437.93 242.88,436.16 240.60,426.12 C238.35,416.26 238.29,415.00 239.30,400.87 L 240.37 386.00 L 247.68 386.00 C254.27,386.00 255.00,386.20 255.00,387.95 C255.00,389.02 255.49,395.59 256.08,402.55 C257.11,414.63 257.05,415.74 254.57,426.87 C251.98,438.52 251.98,438.53 252.24,480.51 L 252.50 522.50 L 259.50 523.00 L 266.50 523.50 L 266.50 529.50 C266.50,534.96 266.30,535.53 264.25,535.82 C262.92,536.01 262.01,536.83 262.02,537.82 C262.07,540.97 264.09,548.49 266.55,554.67 C268.97,560.76 269.00,561.27 269.00,591.92 L 269.00 623.00 L 287.50 623.00 L 306.00 623.00 L 306.02 609.25 C306.05,585.82 307.75,562.27 310.00,554.00 C311.12,549.88 316.64,537.09 322.26,525.60 L 332.48 504.70 L 332.85 493.60 C333.05,487.49 333.68,481.93 334.25,481.23 C334.81,480.53 337.25,479.46 339.66,478.86 C344.58,477.62 346.68,475.24 350.52,466.55 C352.25,462.64 353.53,461.00 354.87,461.00 C356.82,461.00 358.36,458.13 359.49,452.35 C359.88,450.40 360.85,449.01 362.06,448.70 C365.03,447.92 364.63,444.00 361.58,444.00 C358.86,444.00 358.91,444.16 356.50,428.84 C355.07,419.80 355.10,418.24 356.95,404.84 C358.04,396.95 359.62,384.88 360.47,378.00 C362.86,358.53 362.43,359.80 367.52,357.10 C370.00,355.78 372.17,354.88 372.34,355.10 C372.82,355.73 376.02,384.16 376.01,387.69 C376.00,389.45 375.55,391.16 375.00,391.50 C372.98,392.75 373.88,399.54 376.38,401.88 C378.42,403.81 378.92,405.68 379.94,415.31 C381.95,434.24 383.08,434.60 385.04,416.97 C386.17,406.85 386.76,404.47 388.69,402.39 C391.94,398.88 392.45,395.76 390.46,391.56 C388.84,388.13 388.85,387.16 390.77,371.92 C391.88,363.10 393.01,355.65 393.29,355.37 C394.04,354.62 402.02,358.88 402.53,360.30 C402.76,360.96 404.56,374.77 406.52,391.00 L 410.08 420.50 L 408.47 430.50 C406.30,443.90 406.26,444.00 403.43,444.00 C402.09,444.00 401.00,444.41 401.00,444.92 C401.00,447.20 402.37,449.00 404.11,449.00 C405.43,449.00 406.00,449.71 406.00,451.35 C406.00,455.49 408.17,460.12 410.54,461.02 C412.02,461.58 413.81,464.06 415.57,467.99 C418.47,474.43 422.84,479.00 426.12,479.00 C427.20,479.00 429.17,480.08 430.50,481.40 C432.71,483.62 432.85,484.35 432.32,490.78 C431.52,500.24 434.14,508.63 443.48,526.50 C456.63,551.70 457.93,557.60 458.87,596.50 L 459.50 622.50 L 476.40 622.77 L 493.30 623.05 L 492.70 583.77 C491.74,520.56 488.12,482.16 479.93,448.13 C470.79,410.16 463.68,364.52 460.05,320.50 C459.46,313.35 458.72,304.65 458.40,301.17 L 457.82 294.84 L 449.16 295.45 C444.40,295.79 438.59,296.30 436.25,296.59 C433.91,296.88 432.00,296.76 432.00,296.31 C432.00,295.87 431.29,288.98 430.42,281.00 C428.75,265.69 428.12,227.46 429.41,220.25 L 430.18 216.00 L 439.84 215.99 C466.14,215.96 521.27,210.32 562.50,203.43 C577.54,200.91 611.65,194.48 615.62,193.41 C618.03,192.76 617.61,191.54 621.36,210.00 C629.12,248.26 625.73,286.99 611.91,317.88 C610.16,321.80 608.33,325.00 607.85,325.00 C607.36,325.00 602.58,322.81 597.23,320.13 C584.42,313.71 568.41,307.92 553.00,304.11 C539.92,300.88 522.95,297.71 522.29,298.38 C522.08,298.59 522.81,307.03 523.91,317.13 C528.15,356.13 533.56,425.12 536.16,473.50 C536.88,486.78 537.42,523.23 537.45,559.76 L 537.50 623.02 L 585.00 622.76 L 632.50 622.50 L 632.76 550.57 C632.98,487.33 633.20,478.44 634.56,476.93 C635.92,475.43 636.07,469.28 635.79,425.86 C635.62,398.71 635.10,375.71 634.63,374.75 C634.17,373.79 632.87,373.00 631.75,373.00 C630.64,373.00 625.17,371.59 619.61,369.86 C602.19,364.44 592.18,365.77 569.27,376.52 L 560.03 380.86 L 558.07 378.10 L 556.10 375.33 L 560.80 371.82 C579.10,358.14 602.31,347.47 628.36,340.75 C638.23,338.21 642.55,337.61 651.50,337.57 C661.46,337.52 662.91,337.75 666.84,340.01 C677.01,345.86 677.42,346.00 684.40,346.00 C691.17,346.00 691.39,345.92 695.15,341.96 L 699.00 337.92 L 706.75 338.21 L 714.50 338.50 L 715.83 342.50 C717.48,347.46 717.02,367.44 715.18,370.75 C714.05,372.79 713.18,373.00 706.08,373.00 C698.77,373.00 698.11,372.82 696.56,370.45 C694.19,366.84 689.10,364.01 684.95,364.00 C682.80,364.00 678.05,365.64 672.95,368.15 C668.30,370.43 662.94,372.57 661.02,372.91 C654.97,373.98 655.03,373.43 655.01,427.03 L 655.00 475.56 L 657.92 476.66 C659.76,477.36 661.70,479.37 663.17,482.13 L 665.50 486.50 L 666.00 554.50 L 666.50 622.50 L 702.31 622.76 L 738.12 623.03 L 737.76 573.76 C737.36,517.27 737.56,518.73 728.60,507.49 C713.14,488.09 705.56,465.10 708.94,447.89 C711.81,433.31 719.47,419.48 724.27,420.20 C725.99,420.45 727.02,423.15 731.15,438.33 C733.82,448.13 736.49,457.06 737.09,458.16 C738.60,461.00 745.69,463.95 751.00,463.97 C760.25,463.99 773.58,458.66 778.28,453.07 C783.58,446.78 783.60,444.93 778.56,425.68 C776.05,416.09 774.00,407.96 774.00,407.62 C774.00,405.97 780.09,407.31 784.05,409.83 C790.31,413.80 802.02,426.68 805.71,433.64 C810.76,443.15 812.28,449.91 811.83,460.89 C811.49,469.14 810.98,471.47 808.22,477.35 C806.45,481.12 802.13,488.13 798.62,492.92 C795.10,497.71 791.04,503.95 789.60,506.80 C784.16,517.54 784.00,519.39 784.00,571.84 L 784.00 620.26 L 790.25 619.55 C818.29,616.39 843.18,606.74 856.10,594.03 C870.67,579.69 879.41,551.75 876.90,527.52 C875.60,515.01 873.15,506.97 863.50,483.68 C852.00,455.91 850.90,451.46 850.26,430.17 C849.76,413.42 849.67,412.81 847.50,411.82 C845.94,411.11 844.63,411.13 843.19,411.90 C835.52,416.00 844.79,396.11 854.84,386.88 C861.48,380.79 872.75,374.00 876.24,374.00 C877.84,374.00 879.62,374.97 880.82,376.50 C883.31,379.66 885.72,379.66 890.00,376.50 C893.80,373.70 898.12,372.94 896.05,375.44 C894.25,377.61 895.13,381.50 897.42,381.50 C898.47,381.50 899.52,380.94 899.75,380.25 C900.01,379.46 899.59,379.22 898.58,379.61 C896.69,380.33 896.43,377.97 898.20,376.20 C899.78,374.62 900.54,374.69 902.43,376.57 C904.56,378.70 904.41,383.32 902.16,385.36 C901.14,386.27 897.55,387.96 894.18,389.10 C887.50,391.35 881.53,394.91 881.77,396.50 C882.10,398.67 886.21,398.01 889.77,395.22 C895.52,390.71 897.41,390.00 903.71,390.00 C910.20,390.00 914.00,388.11 914.00,384.88 C914.00,383.78 914.45,383.16 915.00,383.50 C916.38,384.35 916.26,388.34 914.80,389.80 C914.13,390.47 910.94,391.00 907.62,391.00 C901.14,391.00 894.70,393.44 891.38,397.16 C889.52,399.25 889.52,399.26 892.00,398.53 C893.38,398.13 896.02,396.92 897.88,395.86 C899.73,394.79 901.51,394.18 901.83,394.50 C902.87,395.54 901.97,407.40 900.80,408.12 C900.18,408.51 897.28,408.57 894.36,408.27 C887.13,407.53 880.87,409.48 875.58,414.14 C870.39,418.71 868.00,424.68 868.00,433.10 C868.00,439.89 869.41,443.46 878.29,459.08 C885.68,472.10 891.33,484.31 900.63,507.33 C928.03,575.17 927.16,622.08 897.70,665.98 C891.76,674.84 879.94,687.35 871.50,693.71 C863.64,699.63 850.21,706.32 839.28,709.75 L 830.50 712.50 L 514.50 712.67 C238.95,712.82 197.62,712.66 191.63,711.37 ZM 427.71 602.75 C426.63,565.27 419.80,539.12 407.07,523.71 C398.18,512.94 390.63,494.95 391.08,485.58 C391.25,482.05 390.68,479.13 389.19,476.00 C388.01,473.52 387.03,470.71 387.02,469.75 C387.00,468.38 386.13,468.00 382.97,468.00 C380.00,468.00 378.80,468.46 378.40,469.75 C378.11,470.71 376.99,473.42 375.93,475.78 C374.71,478.48 374.00,482.27 374.00,486.06 C374.00,496.26 367.47,512.02 358.48,523.50 C344.10,541.87 337.05,571.50 337.01,613.75 L 337.00 623.00 L 382.64 623.00 L 428.29 623.00 L 427.71 602.75 ZM 0.15 245.25 L 0.00 0.00 L 244.75 0.14 C380.02,0.22 484.14,0.65 477.51,1.10 C354.05,9.42 238.29,62.08 150.15,150.00 C62.34,237.60 8.91,355.24 1.08,478.21 C0.65,484.97 0.23,380.14 0.15,245.25 ZM 1022.68 476.75 C1020.26,429.12 1007.70,373.40 988.25,324.00 C923.15,158.62 774.33,37.48 599.50,7.54 C582.27,4.59 562.33,2.17 546.49,1.10 C539.86,0.65 643.98,0.22 779.25,0.14 L 1024.00 0.00 L 1024.00 244.50 C1024.00,378.98 1023.84,489.00 1023.65,489.00 C1023.46,489.00 1023.03,483.49 1022.68,476.75 ZM 940.07 441.25 C940.13,438.81 940.24,438.73 941.00,440.50 C942.17,443.23 942.17,444.00 941.00,444.00 C940.45,444.00 940.03,442.76 940.07,441.25 ZM 745.66 271.55 C745.29,270.58 745.58,270.29 746.55,270.66 C747.35,270.96 748.00,271.62 748.00,272.11 C748.00,273.54 746.26,273.13 745.66,271.55 ZM 795.10 269.40 C793.97,267.97 792.77,265.28 792.42,263.43 C791.87,260.47 792.41,259.25 796.89,253.28 C802.63,245.66 809.17,233.64 811.06,227.25 C812.17,223.49 812.11,222.78 810.53,221.04 C809.56,219.96 806.77,218.31 804.34,217.39 C800.19,215.80 799.44,215.81 791.58,217.45 C782.10,219.44 779.28,218.98 778.35,215.28 C777.25,210.86 779.78,210.00 793.94,209.98 C800.85,209.98 807.11,209.58 807.86,209.11 C810.19,207.63 808.32,203.02 800.47,190.97 C791.97,177.90 790.87,173.58 795.75,172.33 C798.96,171.51 831.04,175.34 839.58,177.56 C848.39,179.86 853.43,182.96 853.82,186.31 C854.08,188.52 853.22,189.95 849.65,193.29 C842.26,200.22 823.64,228.63 802.48,265.25 C800.34,268.96 798.26,272.00 797.86,272.00 C797.47,272.00 796.22,270.83 795.10,269.40 ZM 828.49 206.31 C831.71,202.09 835.85,191.52 834.73,190.39 C834.47,190.14 830.38,188.35 825.62,186.41 C819.37,183.86 815.81,182.97 812.74,183.19 C808.82,183.48 808.51,183.70 808.68,186.21 C808.89,189.21 815.88,204.72 819.26,209.67 C821.91,213.55 823.37,213.01 828.49,206.31 ZM 209.09 260.32 C186.85,225.55 180.38,216.61 167.80,203.30 C159.80,194.83 158.97,191.29 163.75,185.98 C167.64,181.66 174.77,180.03 189.75,180.01 C199.25,180.00 202.00,179.70 202.00,178.67 C202.00,177.95 200.88,174.13 199.50,170.19 C198.12,166.26 197.01,162.24 197.03,161.27 C197.07,159.04 198.88,156.66 201.64,155.18 C204.27,153.79 205.23,154.77 209.03,162.73 L 211.69 168.32 L 214.32 163.92 C215.76,161.50 219.70,153.37 223.07,145.85 C231.02,128.11 236.49,122.47 240.66,127.75 C247.02,135.81 271.54,181.79 280.79,203.00 L 284.93 212.50 L 281.87 212.82 C277.70,213.26 275.54,211.04 271.38,202.03 C264.15,186.36 243.46,147.46 240.69,144.29 C239.09,142.48 237.20,141.00 236.49,141.00 C232.76,141.00 227.35,152.36 225.54,164.00 C225.15,166.48 224.36,169.88 223.78,171.58 C222.79,174.47 223.57,176.15 237.08,200.08 C244.98,214.06 252.76,228.10 254.38,231.29 C257.62,237.66 257.19,239.39 252.47,238.83 C250.01,238.54 248.40,236.22 238.07,218.22 C226.23,197.57 215.33,183.00 211.72,183.00 C210.74,183.00 207.15,184.17 203.74,185.61 C200.33,187.04 193.71,189.56 189.02,191.20 C184.34,192.84 180.12,194.54 179.66,194.98 C177.95,196.60 185.32,208.06 209.61,241.50 C218.39,253.60 225.90,264.02 226.30,264.66 C227.04,265.87 222.43,269.19 218.25,270.45 C216.26,271.06 215.24,269.94 209.09,260.32 ZM 741.41 217.48 C740.63,214.39 741.85,211.27 748.74,198.74 C754.88,187.54 759.00,177.25 759.00,173.07 C759.00,170.38 758.68,170.14 754.14,169.52 C748.49,168.74 742.37,170.14 738.68,173.04 C736.17,175.01 723.25,190.60 719.76,195.87 C718.80,197.32 718.01,199.46 718.01,200.63 C718.00,201.80 717.27,203.36 716.39,204.10 C715.00,205.24 714.50,205.10 712.89,203.11 C708.24,197.37 711.98,188.33 725.35,173.00 C729.77,167.93 736.53,154.64 738.39,147.38 L 739.61 142.57 L 746.05 141.26 C749.59,140.55 757.66,138.12 763.99,135.87 C777.90,130.93 782.82,130.18 786.33,132.48 C788.77,134.08 788.81,134.28 787.49,138.02 C785.66,143.22 749.08,216.02 747.18,218.25 C744.99,220.82 742.15,220.45 741.41,217.48 ZM 770.97 157.38 C780.74,146.26 777.91,140.74 763.47,142.73 C751.16,144.43 745.38,148.74 744.27,157.05 L 743.74 161.00 L 755.76 161.00 L 767.79 161.00 L 770.97 157.38 ZM 296.82 204.30 C292.90,199.84 292.04,196.76 286.94,169.00 C286.38,165.98 283.83,159.32 281.27,154.21 L 276.61 144.92 L 280.79 132.21 C283.08,125.22 285.90,115.69 287.06,111.04 C291.80,91.89 296.52,87.17 301.37,96.75 C303.96,101.86 314.36,130.24 320.51,149.00 C322.58,155.32 325.79,164.19 327.64,168.69 C330.88,176.61 332.01,184.26 330.09,185.44 C328.47,186.44 325.96,184.83 324.39,181.78 C323.54,180.15 320.82,172.89 318.35,165.66 C315.87,158.42 312.47,149.92 310.79,146.77 L 307.74 141.04 L 304.83 142.76 C303.13,143.76 300.78,146.79 299.21,149.99 C296.88,154.74 296.51,156.68 296.59,164.00 C296.71,175.74 299.74,193.81 302.17,197.29 C304.89,201.19 304.28,205.41 300.95,205.80 C299.44,205.97 297.75,205.36 296.82,204.30 ZM 298.75 136.66 C303.10,129.13 304.00,126.75 304.00,122.75 C304.00,118.06 301.27,110.91 298.94,109.46 C295.79,107.52 287.96,120.97 286.10,131.50 C284.94,138.13 285.74,143.43 288.56,147.73 L 290.32 150.41 L 291.91 148.08 C292.78,146.80 295.86,141.66 298.75,136.66 ZM 695.64 193.10 C692.07,190.75 690.08,187.83 684.31,176.50 C677.03,162.18 669.37,151.00 666.84,151.00 C665.11,151.00 662.86,157.50 661.83,165.53 C660.89,172.82 660.47,174.00 658.82,174.00 C657.77,174.00 655.80,172.90 654.45,171.55 C651.21,168.30 651.18,161.92 654.37,154.22 C661.76,136.43 671.55,99.81 676.44,71.75 C677.01,68.49 677.45,68.00 679.82,68.00 C683.79,68.00 687.00,70.61 687.00,73.84 C687.00,75.34 685.24,82.40 683.09,89.53 C680.95,96.67 679.57,102.64 680.04,102.81 C680.50,102.99 687.71,100.80 696.06,97.95 C712.87,92.21 724.96,90.50 731.01,93.00 C737.35,95.63 734.66,97.08 710.49,104.06 C677.19,113.68 674.00,115.17 674.00,121.00 C674.00,122.44 673.04,127.40 671.88,132.02 C670.35,138.05 670.08,140.53 670.91,140.80 C675.61,142.37 683.68,153.17 693.08,170.49 C699.87,183.00 700.83,185.47 700.92,190.75 C701.01,195.56 700.03,196.00 695.64,193.10 ZM 375.05 161.39 C367.20,157.02 364.12,154.77 352.32,144.80 C347.27,140.54 340.62,135.81 337.54,134.30 C330.99,131.09 331.04,133.13 337.01,111.50 C339.14,103.80 341.61,93.51 342.49,88.64 C343.38,83.76 344.80,78.03 345.66,75.90 C347.14,72.19 353.01,66.00 355.03,66.00 C357.71,66.00 355.46,77.00 347.60,102.27 C341.52,121.80 341.53,122.10 348.75,126.66 C351.91,128.65 357.42,133.07 361.00,136.47 C364.58,139.86 371.10,145.04 375.50,147.96 C388.62,156.67 391.96,160.64 388.80,163.80 C386.66,165.94 381.64,165.06 375.05,161.39 ZM 626.67 162.75 C619.78,151.53 614.84,141.20 609.88,127.68 C606.66,118.90 602.67,109.60 601.01,107.02 C599.36,104.44 598.00,101.83 598.00,101.23 C598.00,100.63 602.10,96.17 607.11,91.32 C612.12,86.47 619.12,78.81 622.65,74.31 C626.19,69.80 630.43,64.97 632.09,63.58 C637.16,59.31 646.00,57.96 646.00,61.45 C646.00,62.14 638.12,71.06 628.50,81.29 C618.88,91.52 611.00,100.30 611.00,100.82 C611.00,101.33 612.10,103.72 613.43,106.12 C614.77,108.53 617.66,115.90 619.86,122.50 C624.64,136.91 633.19,156.51 635.98,159.48 C639.54,163.27 638.11,165.00 631.44,165.00 C629.00,165.00 627.66,164.37 626.67,162.75 ZM 429.80 151.32 C427.60,150.74 427.72,151.23 423.38,125.50 C418.88,98.83 418.32,83.51 421.45,72.86 C423.36,66.37 423.36,66.13 421.55,62.11 C420.13,58.95 419.14,58.00 417.30,58.00 C412.24,58.00 407.06,62.30 399.66,72.65 C395.71,78.18 394.44,79.00 389.92,79.00 C387.38,79.00 387.00,78.63 387.00,76.17 C387.00,71.39 392.36,64.91 404.29,55.26 C417.50,44.57 423.43,41.49 428.85,42.49 C434.18,43.48 459.96,53.65 462.14,55.63 C467.86,60.80 460.40,61.40 445.12,56.99 C439.41,55.35 433.62,54.00 432.26,54.00 L 429.77 54.00 L 430.48 69.75 C431.03,82.05 430.84,87.43 429.63,94.33 C428.18,102.57 428.20,104.25 430.04,119.83 C431.13,129.00 432.74,139.31 433.62,142.74 C435.78,151.16 435.09,152.71 429.80,151.32 ZM 541.65 144.17 C540.23,142.60 540.00,139.56 540.01,122.42 C540.01,110.58 540.61,98.04 541.49,91.50 C542.30,85.45 542.98,73.53 543.00,65.00 C543.04,52.04 543.35,48.82 544.92,45.37 C545.95,43.10 547.22,40.98 547.74,40.66 C549.99,39.27 562.11,48.19 575.22,60.90 C591.52,76.71 591.54,75.32 575.00,83.25 C566.87,87.15 553.62,95.25 548.03,99.73 C547.62,100.06 545.24,134.52 545.07,142.75 C544.99,146.43 544.05,146.82 541.65,144.17 ZM 556.36 80.97 C562.25,78.76 570.00,73.63 570.00,71.93 C570.00,70.35 559.92,60.01 556.81,58.40 C550.85,55.32 550.57,55.90 549.49,73.25 C549.09,79.62 549.23,83.00 549.90,83.00 C550.46,83.00 553.37,82.09 556.36,80.97 ZM 482.68 144.34 C482.31,143.98 482.30,133.74 482.64,121.59 C483.30,98.45 482.10,76.93 479.50,65.00 C476.09,49.36 475.68,45.43 477.14,42.39 C478.98,38.56 482.56,38.53 485.39,42.32 C487.37,44.97 487.53,46.77 488.11,72.32 C488.45,87.27 489.08,100.32 489.50,101.32 C490.51,103.72 493.87,102.93 500.50,98.74 C510.33,92.53 518.16,89.00 522.12,89.00 C526.40,89.00 527.21,90.61 524.25,93.25 C523.29,94.11 516.20,97.75 508.50,101.34 C500.80,104.93 493.26,108.97 491.75,110.32 C489.18,112.61 489.00,113.30 489.00,120.84 C489.00,128.14 490.43,134.49 491.92,133.78 C494.77,132.42 508.95,123.78 514.74,119.88 C519.42,116.72 523.04,115.00 524.99,115.00 C528.49,115.00 528.57,115.23 526.28,119.10 C525.19,120.95 521.68,123.51 516.57,126.16 C512.18,128.45 504.96,133.01 500.54,136.30 C490.47,143.79 484.72,146.38 482.68,144.34 ZM 696.50 139.02 C690.24,135.34 689.99,133.47 695.76,133.59 C700.45,133.68 705.00,136.92 705.00,140.17 C705.00,142.80 702.29,142.43 696.50,139.02 ZM 566.23 123.96 C563.39,122.82 562.24,120.09 564.10,118.91 C566.13,117.63 571.40,117.80 572.80,119.20 C573.46,119.86 574.00,121.43 574.00,122.70 C574.00,124.56 573.47,124.99 571.25,124.94 C569.74,124.90 567.48,124.46 566.23,123.96 ZM 639.32 113.65 C635.24,109.92 635.27,107.00 639.39,107.00 C643.19,107.00 644.95,108.00 646.53,111.06 C649.76,117.31 645.13,118.98 639.32,113.65 ZM 369.02 115.17 C366.60,114.37 368.11,110.85 371.47,109.45 C375.89,107.60 377.48,107.62 379.43,109.57 C382.05,112.19 379.82,114.73 374.54,115.15 C372.06,115.35 369.58,115.36 369.02,115.17 ZM 443.45 79.55 C442.10,78.20 441.00,76.43 441.00,75.62 C441.00,72.03 447.78,68.74 450.51,71.01 C452.63,72.77 452.35,77.65 450.00,80.00 C447.41,82.59 446.43,82.52 443.45,79.55 ZM 500.25 70.53 C498.46,69.74 497.00,68.43 497.00,67.62 C497.00,65.59 501.79,62.00 504.50,62.00 C508.12,62.00 512.16,65.80 511.81,68.87 C511.54,71.17 511.01,71.53 507.50,71.74 C505.30,71.86 502.04,71.32 500.25,70.53 Z" fill="rgb(253,253,253)"/>
</g>
</svg>